<svg width="25" height="25" viewBox="0 0 25 25" fill="none" xmlns="http://www.w3.org/2000/svg">
    <path
        d="M15.066 5.55556C15.6791 6.88658 15.8696 8.37356 15.6118 9.81617C15.354 11.2588 14.6602 12.5877 13.624 13.624C12.5877 14.6602 11.2588 15.354 9.81617 15.6118C8.37356 15.8696 6.88658 15.6791 5.55556 15.066C6.34729 18.6312 9.52778 21.2963 13.3311 21.2963C17.7303 21.2963 21.2963 17.7303 21.2963 13.3311C21.2963 9.52778 18.6312 6.34729 15.066 5.55556Z"
        fill="white" />
    <path
        d="M6.17284 3.99832C6.17284 3.90011 6.11111 3.7037 5.8642 3.7037C5.61729 3.7037 5.55556 3.90011 5.55556 3.99832C5.55556 4.48934 5.24691 5.47138 4.01235 5.47138C3.90947 5.47138 3.7037 5.5303 3.7037 5.76599C3.7037 6.00168 3.90947 6.06061 4.01235 6.06061C4.52675 6.10971 5.55556 6.47307 5.55556 7.53367C5.55556 7.63188 5.61729 7.82828 5.8642 7.82828C6.11111 7.82828 6.17284 7.63188 6.17284 7.53367C6.17284 6.35522 7.30453 6.06061 7.71605 6.06061C7.81893 6.06061 8.02469 6.00168 8.02469 5.76599C8.02469 5.5303 7.81893 5.47138 7.71605 5.47138C6.48148 5.47138 6.17284 4.48934 6.17284 3.99832Z"
        fill="white" />
    <path
        d="M10.1852 7.53367C10.1852 7.43547 10.2469 7.23906 10.4938 7.23906C10.7407 7.23906 10.8025 7.43547 10.8025 7.53367C10.8025 7.82828 10.9877 8.41751 11.7284 8.41751C11.8313 8.41751 12.037 8.47643 12.037 8.71212C12.037 8.94781 11.8313 9.00674 11.7284 9.00674C11.4198 9.00674 10.8025 9.1835 10.8025 9.89057C10.8025 9.98878 10.7407 10.1852 10.4938 10.1852C10.2469 10.1852 10.1852 9.98878 10.1852 9.89057C10.1852 9.59596 10 9.00674 9.25926 9.00674C9.15638 9.00674 8.95062 8.94781 8.95062 8.71212C8.95062 8.47643 9.15638 8.41751 9.25926 8.41751C9.5679 8.41751 10.1852 8.24074 10.1852 7.53367Z"
        fill="white" />
</svg>