<svg width="25" height="25" viewBox="0 0 25 25" fill="none" xmlns="http://www.w3.org/2000/svg">
    <path
        d="M12.6213 21.4686L12.6184 21.4702C12.582 21.4898 12.5413 21.5 12.5 21.5C12.4587 21.5 12.418 21.4898 12.3816 21.4702L12.3787 21.4686C12.1884 21.3678 9.68984 20.0056 7.24641 17.8653C4.77671 15.7019 2.50014 12.8621 2.5 9.81414C2.50166 8.40522 3.06196 7.0545 4.05796 6.05827C5.05395 5.06205 6.40429 4.50166 7.81277 4.5C9.60243 4.50008 11.1445 5.26738 12.1001 6.54038L12.5 7.07308L12.8999 6.54038C13.8555 5.26738 15.3976 4.50008 17.1872 4.5C18.5957 4.50166 19.9461 5.06205 20.942 6.05827C21.9381 7.05457 22.4984 8.40541 22.5 9.81443C22.4997 12.8623 20.2232 15.702 17.7536 17.8653C15.3102 20.0056 12.8116 21.3678 12.6213 21.4686Z"
        stroke="white" />
</svg>